{
    "asset" : {
        "generator" : "Khronos glTF Blender I/O v1.5.17",
        "version" : "2.0"
    },
    "scene" : 0,
    "scenes" : [
        {
            "name" : "Scene",
            "nodes" : [
                0,
                1,
                2,
                3,
                4,
                5,
                6,
                7,
                8,
                9,
                10,
                11,
                12,
                13,
                14
            ]
        },
        {
            "name" : "Scene.001"
        }
    ],
    "nodes" : [
        {
            "mesh" : 0,
            "name" : "Circle.004",
            "translation" : [
                0,
                0.07981135696172714,
                0
            ]
        },
        {
            "name" : "TrueIsoCam",
            "rotation" : [
                0.4247112274169922,
                0.33985042572021484,
                -0.17592111229896545,
                0.8204717040061951
            ],
            "translation" : [
                30.608610153198242,
                30.608610153198242,
                30.608610153198242
            ]
        },
        {
            "name" : "ISO Primary",
            "rotation" : [
                -0.04451089724898338,
                -0.24825170636177063,
                -0.6097311973571777,
                0.7514106631278992
            ],
            "translation" : [
                5.2455925941467285,
                1.4153944253921509,
                1.3062050342559814
            ]
        },
        {
            "name" : "ISO Left",
            "rotation" : [
                -0.0731150433421135,
                0.5588758587837219,
                0.8100813031196594,
                0.16149376332759857
            ],
            "translation" : [
                -3.607046365737915,
                -0.47052910923957825,
                3.089542865753174
            ]
        },
        {
            "name" : "ISO Top",
            "translation" : [
                0,
                4.189457416534424,
                -0.9681752920150757
            ]
        },
        {
            "name" : "ISO Add On",
            "translation" : [
                1.2781541347503662,
                -1.4249043464660645,
                2.2825307846069336
            ]
        },
        {
            "name" : "Main Camera",
            "rotation" : [
                0.7071068286895752,
                0,
                0,
                0.7071067094802856
            ],
            "translation" : [
                0,
                0,
                9.73033618927002
            ]
        },
        {
            "name" : "Front Addon",
            "translation" : [
                1.4595177173614502,
                -0.963281512260437,
                -0.03942347690463066
            ]
        },
        {
            "name" : "Front Primary Light",
            "rotation" : [
                0.14808622002601624,
                -0.5069681406021118,
                -0.6878417730331421,
                0.49792322516441345
            ],
            "translation" : [
                3.7185628414154053,
                -0.46877521276474,
                5.17837381362915
            ]
        },
        {
            "name" : "Front Right Light",
            "rotation" : [
                -0.4338149428367615,
                0.4941633343696594,
                0.6427600979804993,
                0.39302241802215576
            ],
            "translation" : [
                -5.652316570281982,
                -0.12299716472625732,
                1.528296709060669
            ]
        },
        {
            "name" : "Front Top Light",
            "translation" : [
                0,
                5.072922706604004,
                -0.9681752920150757
            ]
        },
        {
            "name" : "Dynamic Top Light",
            "translation" : [
                0,
                5.072922706604004,
                -0.9681752920150757
            ]
        },
        {
            "name" : "Dynamic Primary Light",
            "rotation" : [
                0.04783191904425621,
                -0.35576874017715454,
                -0.7546393871307373,
                0.5492361783981323
            ],
            "translation" : [
                4.295034408569336,
                -0.48557567596435547,
                3.6891586780548096
            ]
        },
        {
            "name" : "Dynamic Right Light",
            "rotation" : [
                -0.3300318121910095,
                0.5486260652542114,
                0.7017228603363037,
                0.312527596950531
            ],
            "translation" : [
                -4.646234512329102,
                -0.15525920689105988,
                2.5548248291015625
            ]
        },
        {
            "name" : "Dynamic Add on",
            "translation" : [
                -0.2642672657966614,
                -3.0939834117889404,
                -0.774456799030304
            ]
        }
    ],
    "animations" : [
        {
            "channels" : [
                {
                    "sampler" : 0,
                    "target" : {
                        "node" : 0,
                        "path" : "translation"
                    }
                },
                {
                    "sampler" : 1,
                    "target" : {
                        "node" : 0,
                        "path" : "rotation"
                    }
                },
                {
                    "sampler" : 2,
                    "target" : {
                        "node" : 0,
                        "path" : "scale"
                    }
                }
            ],
            "name" : "Circle.004Action",
            "samplers" : [
                {
                    "input" : 8,
                    "interpolation" : "LINEAR",
                    "output" : 9
                },
                {
                    "input" : 8,
                    "interpolation" : "LINEAR",
                    "output" : 10
                },
                {
                    "input" : 8,
                    "interpolation" : "LINEAR",
                    "output" : 11
                }
            ]
        }
    ],
    "materials" : [
        {
            "doubleSided" : true,
            "name" : "Color - Wood",
            "pbrMetallicRoughness" : {
                "metallicFactor" : 0,
                "roughnessFactor" : 0.5
            }
        },
        {
            "doubleSided" : true,
            "name" : "Silver Metal",
            "pbrMetallicRoughness" : {
                "baseColorFactor" : [
                    0.6847962737083435,
                    0.6847962737083435,
                    0.6847962737083435,
                    1
                ],
                "roughnessFactor" : 0.25
            }
        }
    ],
    "meshes" : [
        {
            "name" : "Circle.021",
            "primitives" : [
                {
                    "attributes" : {
                        "POSITION" : 0,
                        "NORMAL" : 1,
                        "TEXCOORD_0" : 2
                    },
                    "indices" : 3,
                    "material" : 0
                },
                {
                    "attributes" : {
                        "POSITION" : 4,
                        "NORMAL" : 5,
                        "TEXCOORD_0" : 6
                    },
                    "indices" : 7,
                    "material" : 1
                }
            ]
        }
    ],
    "accessors" : [
        {
            "bufferView" : 0,
            "componentType" : 5126,
            "count" : 28865,
            "max" : [
                0.5645081996917725,
                0.8820282220840454,
                0.564508318901062
            ],
            "min" : [
                -0.5645080804824829,
                -0.9518174529075623,
                -0.5645081400871277
            ],
            "type" : "VEC3"
        },
        {
            "bufferView" : 1,
            "componentType" : 5126,
            "count" : 28865,
            "type" : "VEC3"
        },
        {
            "bufferView" : 2,
            "componentType" : 5126,
            "count" : 28865,
            "type" : "VEC2"
        },
        {
            "bufferView" : 3,
            "componentType" : 5123,
            "count" : 172032,
            "type" : "SCALAR"
        },
        {
            "bufferView" : 4,
            "componentType" : 5126,
            "count" : 7233,
            "max" : [
                0.5680605173110962,
                -0.9518172740936279,
                0.5680605173110962
            ],
            "min" : [
                -0.5680604577064514,
                -1.0555469989776611,
                -0.5680605173110962
            ],
            "type" : "VEC3"
        },
        {
            "bufferView" : 5,
            "componentType" : 5126,
            "count" : 7233,
            "type" : "VEC3"
        },
        {
            "bufferView" : 6,
            "componentType" : 5126,
            "count" : 7233,
            "type" : "VEC2"
        },
        {
            "bufferView" : 7,
            "componentType" : 5123,
            "count" : 43008,
            "type" : "SCALAR"
        },
        {
            "bufferView" : 8,
            "componentType" : 5126,
            "count" : 3,
            "max" : [
                0.08333333333333333
            ],
            "min" : [
                0
            ],
            "type" : "SCALAR"
        },
        {
            "bufferView" : 9,
            "componentType" : 5126,
            "count" : 3,
            "type" : "VEC3"
        },
        {
            "bufferView" : 10,
            "componentType" : 5126,
            "count" : 3,
            "type" : "VEC4"
        },
        {
            "bufferView" : 11,
            "componentType" : 5126,
            "count" : 3,
            "type" : "VEC3"
        }
    ],
    "bufferViews" : [
        {
            "buffer" : 0,
            "byteLength" : 346380,
            "byteOffset" : 0
        },
        {
            "buffer" : 0,
            "byteLength" : 346380,
            "byteOffset" : 346380
        },
        {
            "buffer" : 0,
            "byteLength" : 230920,
            "byteOffset" : 692760
        },
        {
            "buffer" : 0,
            "byteLength" : 344064,
            "byteOffset" : 923680
        },
        {
            "buffer" : 0,
            "byteLength" : 86796,
            "byteOffset" : 1267744
        },
        {
            "buffer" : 0,
            "byteLength" : 86796,
            "byteOffset" : 1354540
        },
        {
            "buffer" : 0,
            "byteLength" : 57864,
            "byteOffset" : 1441336
        },
        {
            "buffer" : 0,
            "byteLength" : 86016,
            "byteOffset" : 1499200
        },
        {
            "buffer" : 0,
            "byteLength" : 12,
            "byteOffset" : 1585216
        },
        {
            "buffer" : 0,
            "byteLength" : 36,
            "byteOffset" : 1585228
        },
        {
            "buffer" : 0,
            "byteLength" : 48,
            "byteOffset" : 1585264
        },
        {
            "buffer" : 0,
            "byteLength" : 36,
            "byteOffset" : 1585312
        }
    ],
    "buffers" : [
        {
            "byteLength" : 1585348,
            "uri" : "data:application/octet-stream;base64,"
        }
    ]
}
